<?xml version="1.0" encoding="UTF-8" standalone="no"?><svg xmlns="http://www.w3.org/2000/svg" xmlns:xlink="http://www.w3.org/1999/xlink" contentScriptType="application/ecmascript" contentStyleType="text/css" height="764px" preserveAspectRatio="none" style="width:1820px;height:764px;" version="1.1" viewBox="0 0 1820 764" width="1820px" zoomAndPan="magnify"><defs><filter height="300%" id="f1sd9211smo57u" width="300%" x="-1" y="-1"><feGaussianBlur result="blurOut" stdDeviation="2.0"/><feColorMatrix in="blurOut" result="blurOut2" type="matrix" values="0 0 0 0 0 0 0 0 0 0 0 0 0 0 0 0 0 0 .4 0"/><feOffset dx="4.0" dy="4.0" in="blurOut2" result="blurOut3"/><feBlend in="SourceGraphic" in2="blurOut3" mode="normal"/></filter></defs><g><!--MD5=[8ce6b0c5b40a9f9d4371fa996248b52a]
class ScopableEntity--><rect codeLine="11" fill="#FFFFFF" filter="url(#f1sd9211smo57u)" height="32" id="ScopableEntity" style="stroke:#A9A9A9;stroke-width:1.5;" width="125" x="1123.5" y="231"/><ellipse cx="1138.5" cy="247" fill="#FFFFFF" rx="11" ry="11" style="stroke:#A9A9A9;stroke-width:1.0;"/><path d="M1141.4688,252.6406 Q1140.8906,252.9375 1140.25,253.0781 Q1139.6094,253.2344 1138.9063,253.2344 Q1136.4063,253.2344 1135.0781,251.5938 Q1133.7656,249.9375 1133.7656,246.8125 Q1133.7656,243.6875 1135.0781,242.0313 Q1136.4063,240.375 1138.9063,240.375 Q1139.6094,240.375 1140.25,240.5313 Q1140.9063,240.6875 1141.4688,240.9844 L1141.4688,243.7031 Q1140.8438,243.125 1140.25,242.8594 Q1139.6563,242.5781 1139.0313,242.5781 Q1137.6875,242.5781 1137,243.6563 Q1136.3125,244.7188 1136.3125,246.8125 Q1136.3125,248.9063 1137,249.9844 Q1137.6875,251.0469 1139.0313,251.0469 Q1139.6563,251.0469 1140.25,250.7813 Q1140.8438,250.5 1141.4688,249.9219 L1141.4688,252.6406 Z " fill="#000000"/><text fill="#000000" font-family="sans-serif" font-size="12" lengthAdjust="spacing" textLength="93" x="1152.5" y="251.1543">ScopableEntity</text><!--MD5=[9342578375d27f7d6f0fb6a24ebe566c]
class TArgument--><rect codeLine="13" fill="#FFFFFF" filter="url(#f1sd9211smo57u)" height="32" id="TArgument" style="stroke:#A9A9A9;stroke-width:1.5;" width="100" x="816" y="415"/><ellipse cx="831" cy="431" fill="#D3D3D3" rx="11" ry="11" style="stroke:#A9A9A9;stroke-width:1.0;"/><path d="M831.8438,437.75 L829.3906,437.75 L829.3906,427.5 L826.25,427.5 L826.25,425.3594 L834.9844,425.3594 L834.9844,427.5 L831.8438,427.5 L831.8438,437.75 Z " fill="#000000"/><text fill="#000000" font-family="sans-serif" font-size="12" lengthAdjust="spacing" textLength="68" x="845" y="435.1543">TArgument</text><!--MD5=[3a895033af9ff856730c4855678b96d4]
class NullPointerLiteral--><rect codeLine="15" fill="#FFFFFF" filter="url(#f1sd9211smo57u)" height="32" id="NullPointerLiteral" style="stroke:#A9A9A9;stroke-width:1.5;" width="138" x="1059" y="718"/><ellipse cx="1074" cy="734" fill="#FFFFFF" rx="11" ry="11" style="stroke:#A9A9A9;stroke-width:1.0;"/><path d="M1076.9688,739.6406 Q1076.3906,739.9375 1075.75,740.0781 Q1075.1094,740.2344 1074.4063,740.2344 Q1071.9063,740.2344 1070.5781,738.5938 Q1069.2656,736.9375 1069.2656,733.8125 Q1069.2656,730.6875 1070.5781,729.0313 Q1071.9063,727.375 1074.4063,727.375 Q1075.1094,727.375 1075.75,727.5313 Q1076.4063,727.6875 1076.9688,727.9844 L1076.9688,730.7031 Q1076.3438,730.125 1075.75,729.8594 Q1075.1563,729.5781 1074.5313,729.5781 Q1073.1875,729.5781 1072.5,730.6563 Q1071.8125,731.7188 1071.8125,733.8125 Q1071.8125,735.9063 1072.5,736.9844 Q1073.1875,738.0469 1074.5313,738.0469 Q1075.1563,738.0469 1075.75,737.7813 Q1076.3438,737.5 1076.9688,736.9219 L1076.9688,739.6406 Z " fill="#000000"/><text fill="#000000" font-family="sans-serif" font-size="12" lengthAdjust="spacing" textLength="106" x="1088" y="738.1543">NullPointerLiteral</text><!--MD5=[9737828509a2353b46345f8f0318fa3d]
class CharacterLiteral--><rect codeLine="17" fill="#FFFFFF" filter="url(#f1sd9211smo57u)" height="32" id="CharacterLiteral" style="stroke:#A9A9A9;stroke-width:1.5;" width="132" x="1232" y="718"/><ellipse cx="1247" cy="734" fill="#FFFFFF" rx="11" ry="11" style="stroke:#A9A9A9;stroke-width:1.0;"/><path d="M1249.9688,739.6406 Q1249.3906,739.9375 1248.75,740.0781 Q1248.1094,740.2344 1247.4063,740.2344 Q1244.9063,740.2344 1243.5781,738.5938 Q1242.2656,736.9375 1242.2656,733.8125 Q1242.2656,730.6875 1243.5781,729.0313 Q1244.9063,727.375 1247.4063,727.375 Q1248.1094,727.375 1248.75,727.5313 Q1249.4063,727.6875 1249.9688,727.9844 L1249.9688,730.7031 Q1249.3438,730.125 1248.75,729.8594 Q1248.1563,729.5781 1247.5313,729.5781 Q1246.1875,729.5781 1245.5,730.6563 Q1244.8125,731.7188 1244.8125,733.8125 Q1244.8125,735.9063 1245.5,736.9844 Q1246.1875,738.0469 1247.5313,738.0469 Q1248.1563,738.0469 1248.75,737.7813 Q1249.3438,737.5 1249.9688,736.9219 L1249.9688,739.6406 Z " fill="#000000"/><text fill="#000000" font-family="sans-serif" font-size="12" lengthAdjust="spacing" textLength="100" x="1261" y="738.1543">CharacterLiteral</text><!--MD5=[a61a298976b7d1d94498f45c2ebfa10b]
class Statement--><rect codeLine="19" fill="#FFFFFF" filter="url(#f1sd9211smo57u)" height="32" id="Statement" style="stroke:#A9A9A9;stroke-width:1.5;" width="98" x="1137" y="323"/><ellipse cx="1152" cy="339" fill="#FFFFFF" rx="11" ry="11" style="stroke:#A9A9A9;stroke-width:1.0;"/><path d="M1154.9688,344.6406 Q1154.3906,344.9375 1153.75,345.0781 Q1153.1094,345.2344 1152.4063,345.2344 Q1149.9063,345.2344 1148.5781,343.5938 Q1147.2656,341.9375 1147.2656,338.8125 Q1147.2656,335.6875 1148.5781,334.0313 Q1149.9063,332.375 1152.4063,332.375 Q1153.1094,332.375 1153.75,332.5313 Q1154.4063,332.6875 1154.9688,332.9844 L1154.9688,335.7031 Q1154.3438,335.125 1153.75,334.8594 Q1153.1563,334.5781 1152.5313,334.5781 Q1151.1875,334.5781 1150.5,335.6563 Q1149.8125,336.7188 1149.8125,338.8125 Q1149.8125,340.9063 1150.5,341.9844 Q1151.1875,343.0469 1152.5313,343.0469 Q1153.1563,343.0469 1153.75,342.7813 Q1154.3438,342.5 1154.9688,341.9219 L1154.9688,344.6406 Z " fill="#000000"/><text fill="#000000" font-family="sans-serif" font-size="12" lengthAdjust="spacing" textLength="66" x="1166" y="343.1543">Statement</text><!--MD5=[12723b8e38baf162be6b391595683935]
class NamedBehaviouralEntity--><rect codeLine="21" fill="#FFFFFF" filter="url(#f1sd9211smo57u)" height="32" id="NamedBehaviouralEntity" style="stroke:#A9A9A9;stroke-width:1.5;" width="184" x="104" y="615.5"/><ellipse cx="119" cy="631.5" fill="#FFFFFF" rx="11" ry="11" style="stroke:#A9A9A9;stroke-width:1.0;"/><path d="M121.9688,637.1406 Q121.3906,637.4375 120.75,637.5781 Q120.1094,637.7344 119.4063,637.7344 Q116.9063,637.7344 115.5781,636.0938 Q114.2656,634.4375 114.2656,631.3125 Q114.2656,628.1875 115.5781,626.5313 Q116.9063,624.875 119.4063,624.875 Q120.1094,624.875 120.75,625.0313 Q121.4063,625.1875 121.9688,625.4844 L121.9688,628.2031 Q121.3438,627.625 120.75,627.3594 Q120.1563,627.0781 119.5313,627.0781 Q118.1875,627.0781 117.5,628.1563 Q116.8125,629.2188 116.8125,631.3125 Q116.8125,633.4063 117.5,634.4844 Q118.1875,635.5469 119.5313,635.5469 Q120.1563,635.5469 120.75,635.2813 Q121.3438,635 121.9688,634.4219 L121.9688,637.1406 Z " fill="#000000"/><text fill="#000000" font-family="sans-serif" font-size="12" lengthAdjust="spacing" textLength="152" x="133" y="635.6543">NamedBehaviouralEntity</text><!--MD5=[ee5364c331acc9e6e86004e0e3e6eb68]
class StringLiteral--><rect codeLine="23" fill="#FFFFFF" filter="url(#f1sd9211smo57u)" height="32" id="StringLiteral" style="stroke:#A9A9A9;stroke-width:1.5;" width="107" x="1399.5" y="718"/><ellipse cx="1414.5" cy="734" fill="#FFFFFF" rx="11" ry="11" style="stroke:#A9A9A9;stroke-width:1.0;"/><path d="M1417.4688,739.6406 Q1416.8906,739.9375 1416.25,740.0781 Q1415.6094,740.2344 1414.9063,740.2344 Q1412.4063,740.2344 1411.0781,738.5938 Q1409.7656,736.9375 1409.7656,733.8125 Q1409.7656,730.6875 1411.0781,729.0313 Q1412.4063,727.375 1414.9063,727.375 Q1415.6094,727.375 1416.25,727.5313 Q1416.9063,727.6875 1417.4688,727.9844 L1417.4688,730.7031 Q1416.8438,730.125 1416.25,729.8594 Q1415.6563,729.5781 1415.0313,729.5781 Q1413.6875,729.5781 1413,730.6563 Q1412.3125,731.7188 1412.3125,733.8125 Q1412.3125,735.9063 1413,736.9844 Q1413.6875,738.0469 1415.0313,738.0469 Q1415.6563,738.0469 1416.25,737.7813 Q1416.8438,737.5 1417.4688,736.9219 L1417.4688,739.6406 Z " fill="#000000"/><text fill="#000000" font-family="sans-serif" font-size="12" lengthAdjust="spacing" textLength="75" x="1428.5" y="738.1543">StringLiteral</text><!--MD5=[346d99b39270fc9da6b587baaa1d0e86]
class BooleanLiteral--><rect codeLine="25" fill="#FFFFFF" filter="url(#f1sd9211smo57u)" height="32" id="BooleanLiteral" style="stroke:#A9A9A9;stroke-width:1.5;" width="121" x="1541.5" y="718"/><ellipse cx="1556.5" cy="734" fill="#FFFFFF" rx="11" ry="11" style="stroke:#A9A9A9;stroke-width:1.0;"/><path d="M1559.4688,739.6406 Q1558.8906,739.9375 1558.25,740.0781 Q1557.6094,740.2344 1556.9063,740.2344 Q1554.4063,740.2344 1553.0781,738.5938 Q1551.7656,736.9375 1551.7656,733.8125 Q1551.7656,730.6875 1553.0781,729.0313 Q1554.4063,727.375 1556.9063,727.375 Q1557.6094,727.375 1558.25,727.5313 Q1558.9063,727.6875 1559.4688,727.9844 L1559.4688,730.7031 Q1558.8438,730.125 1558.25,729.8594 Q1557.6563,729.5781 1557.0313,729.5781 Q1555.6875,729.5781 1555,730.6563 Q1554.3125,731.7188 1554.3125,733.8125 Q1554.3125,735.9063 1555,736.9844 Q1555.6875,738.0469 1557.0313,738.0469 Q1557.6563,738.0469 1558.25,737.7813 Q1558.8438,737.5 1559.4688,736.9219 L1559.4688,739.6406 Z " fill="#000000"/><text fill="#000000" font-family="sans-serif" font-size="12" lengthAdjust="spacing" textLength="89" x="1570.5" y="738.1543">BooleanLiteral</text><!--MD5=[0c4261079a22b6a12f3886ba4f6c9001]
class ReturnStatement--><rect codeLine="27" fill="#FFFFFF" filter="url(#f1sd9211smo57u)" height="32" id="ReturnStatement" style="stroke:#A9A9A9;stroke-width:1.5;" width="140" x="1118" y="415"/><ellipse cx="1133" cy="431" fill="#FFFFFF" rx="11" ry="11" style="stroke:#A9A9A9;stroke-width:1.0;"/><path d="M1135.9688,436.6406 Q1135.3906,436.9375 1134.75,437.0781 Q1134.1094,437.2344 1133.4063,437.2344 Q1130.9063,437.2344 1129.5781,435.5938 Q1128.2656,433.9375 1128.2656,430.8125 Q1128.2656,427.6875 1129.5781,426.0313 Q1130.9063,424.375 1133.4063,424.375 Q1134.1094,424.375 1134.75,424.5313 Q1135.4063,424.6875 1135.9688,424.9844 L1135.9688,427.7031 Q1135.3438,427.125 1134.75,426.8594 Q1134.1563,426.5781 1133.5313,426.5781 Q1132.1875,426.5781 1131.5,427.6563 Q1130.8125,428.7188 1130.8125,430.8125 Q1130.8125,432.9063 1131.5,433.9844 Q1132.1875,435.0469 1133.5313,435.0469 Q1134.1563,435.0469 1134.75,434.7813 Q1135.3438,434.5 1135.9688,433.9219 L1135.9688,436.6406 Z " fill="#000000"/><text fill="#000000" font-family="sans-serif" font-size="12" lengthAdjust="spacing" textLength="108" x="1147" y="435.1543">ReturnStatement</text><!--MD5=[c73f40aab2e3ffaae55380063365c075]
class ExpressionStatement--><rect codeLine="29" fill="#FFFFFF" filter="url(#f1sd9211smo57u)" height="32" id="ExpressionStatement" style="stroke:#A9A9A9;stroke-width:1.5;" width="166" x="1293" y="415"/><ellipse cx="1308" cy="431" fill="#FFFFFF" rx="11" ry="11" style="stroke:#A9A9A9;stroke-width:1.0;"/><path d="M1310.9688,436.6406 Q1310.3906,436.9375 1309.75,437.0781 Q1309.1094,437.2344 1308.4063,437.2344 Q1305.9063,437.2344 1304.5781,435.5938 Q1303.2656,433.9375 1303.2656,430.8125 Q1303.2656,427.6875 1304.5781,426.0313 Q1305.9063,424.375 1308.4063,424.375 Q1309.1094,424.375 1309.75,424.5313 Q1310.4063,424.6875 1310.9688,424.9844 L1310.9688,427.7031 Q1310.3438,427.125 1309.75,426.8594 Q1309.1563,426.5781 1308.5313,426.5781 Q1307.1875,426.5781 1306.5,427.6563 Q1305.8125,428.7188 1305.8125,430.8125 Q1305.8125,432.9063 1306.5,433.9844 Q1307.1875,435.0469 1308.5313,435.0469 Q1309.1563,435.0469 1309.75,434.7813 Q1310.3438,434.5 1310.9688,433.9219 L1310.9688,436.6406 Z " fill="#000000"/><text fill="#000000" font-family="sans-serif" font-size="12" lengthAdjust="spacing" textLength="134" x="1322" y="435.1543">ExpressionStatement</text><!--MD5=[be996cdb8e6bf2fc7cb89c555f2cd144]
class Entity--><rect codeLine="101" fill="#FFFFE0" filter="url(#f1sd9211smo57u)" height="37.9375" id="Entity" style="stroke:#D3D3D3;stroke-width:1.5;" width="93" x="1207.5" y="119"/><ellipse cx="1222.5" cy="137.9688" fill="#FFFFE0" rx="11" ry="11" style="stroke:#D3D3D3;stroke-width:1.0;"/><path d="M1225.4688,143.6094 Q1224.8906,143.9063 1224.25,144.0469 Q1223.6094,144.2031 1222.9063,144.2031 Q1220.4063,144.2031 1219.0781,142.5625 Q1217.7656,140.9063 1217.7656,137.7813 Q1217.7656,134.6563 1219.0781,133 Q1220.4063,131.3438 1222.9063,131.3438 Q1223.6094,131.3438 1224.25,131.5 Q1224.9063,131.6563 1225.4688,131.9531 L1225.4688,134.6719 Q1224.8438,134.0938 1224.25,133.8281 Q1223.6563,133.5469 1223.0313,133.5469 Q1221.6875,133.5469 1221,134.625 Q1220.3125,135.6875 1220.3125,137.7813 Q1220.3125,139.875 1221,140.9531 Q1221.6875,142.0156 1223.0313,142.0156 Q1223.6563,142.0156 1224.25,141.75 Q1224.8438,141.4688 1225.4688,140.8906 L1225.4688,143.6094 Z " fill="#000000"/><text fill="#000000" font-family="sans-serif" font-size="12" font-style="italic" lengthAdjust="spacing" textLength="65" x="1234.5" y="135.1387">«External»</text><text fill="#000000" font-family="sans-serif" font-size="12" lengthAdjust="spacing" textLength="35" x="1249.5" y="149.1074">Entity</text><!--MD5=[9bd223fe1f846b38940bb758d632d4f3]
class TParameter--><rect codeLine="33" fill="#FFFFFF" filter="url(#f1sd9211smo57u)" height="32" id="TParameter" style="stroke:#A9A9A9;stroke-width:1.5;" width="105" x="744.5" y="122"/><ellipse cx="759.5" cy="138" fill="#D3D3D3" rx="11" ry="11" style="stroke:#A9A9A9;stroke-width:1.0;"/><path d="M760.3438,144.75 L757.8906,144.75 L757.8906,134.5 L754.75,134.5 L754.75,132.3594 L763.4844,132.3594 L763.4844,134.5 L760.3438,134.5 L760.3438,144.75 Z " fill="#000000"/><text fill="#000000" font-family="sans-serif" font-size="12" lengthAdjust="spacing" textLength="73" x="773.5" y="142.1543">TParameter</text><!--MD5=[783da01c964f5d77e03b7db4b79d5bd8]
class TWithArguments--><rect codeLine="35" fill="#FFFFFF" filter="url(#f1sd9211smo57u)" height="32" id="TWithArguments" style="stroke:#A9A9A9;stroke-width:1.5;" width="134" x="799" y="510"/><ellipse cx="814" cy="526" fill="#D3D3D3" rx="11" ry="11" style="stroke:#A9A9A9;stroke-width:1.0;"/><path d="M814.8438,532.75 L812.3906,532.75 L812.3906,522.5 L809.25,522.5 L809.25,520.3594 L817.9844,520.3594 L817.9844,522.5 L814.8438,522.5 L814.8438,532.75 Z " fill="#000000"/><text fill="#000000" font-family="sans-serif" font-size="12" lengthAdjust="spacing" textLength="102" x="828" y="530.1543">TWithArguments</text><!--MD5=[3637e2e3ff64f8c7ec072f5df5e3a1dc]
class Expression--><rect codeLine="37" fill="#FFFFFF" filter="url(#f1sd9211smo57u)" height="32" id="Expression" style="stroke:#A9A9A9;stroke-width:1.5;" width="100" x="1326" y="510"/><ellipse cx="1341" cy="526" fill="#FFFFFF" rx="11" ry="11" style="stroke:#A9A9A9;stroke-width:1.0;"/><path d="M1343.9688,531.6406 Q1343.3906,531.9375 1342.75,532.0781 Q1342.1094,532.2344 1341.4063,532.2344 Q1338.9063,532.2344 1337.5781,530.5938 Q1336.2656,528.9375 1336.2656,525.8125 Q1336.2656,522.6875 1337.5781,521.0313 Q1338.9063,519.375 1341.4063,519.375 Q1342.1094,519.375 1342.75,519.5313 Q1343.4063,519.6875 1343.9688,519.9844 L1343.9688,522.7031 Q1343.3438,522.125 1342.75,521.8594 Q1342.1563,521.5781 1341.5313,521.5781 Q1340.1875,521.5781 1339.5,522.6563 Q1338.8125,523.7188 1338.8125,525.8125 Q1338.8125,527.9063 1339.5,528.9844 Q1340.1875,530.0469 1341.5313,530.0469 Q1342.1563,530.0469 1342.75,529.7813 Q1343.3438,529.5 1343.9688,528.9219 L1343.9688,531.6406 Z " fill="#000000"/><text fill="#000000" font-family="sans-serif" font-size="12" lengthAdjust="spacing" textLength="68" x="1355" y="530.1543">Expression</text><!--MD5=[73ef187932967aa63dd4a169d5713a69]
class TWithParameters--><rect codeLine="39" fill="#FFFFFF" filter="url(#f1sd9211smo57u)" height="32" id="TWithParameters" style="stroke:#A9A9A9;stroke-width:1.5;" width="139" x="796.5" y="231"/><ellipse cx="811.5" cy="247" fill="#D3D3D3" rx="11" ry="11" style="stroke:#A9A9A9;stroke-width:1.0;"/><path d="M812.3438,253.75 L809.8906,253.75 L809.8906,243.5 L806.75,243.5 L806.75,241.3594 L815.4844,241.3594 L815.4844,243.5 L812.3438,243.5 L812.3438,253.75 Z " fill="#000000"/><text fill="#000000" font-family="sans-serif" font-size="12" lengthAdjust="spacing" textLength="107" x="825.5" y="251.1543">TWithParameters</text><!--MD5=[4d649ec7d4fb449bee97066e00dd2927]
class StatementBlock--><rect codeLine="41" fill="#FFFFFF" filter="url(#f1sd9211smo57u)" height="32" id="StatementBlock" style="stroke:#A9A9A9;stroke-width:1.5;" width="131" x="951.5" y="415"/><ellipse cx="966.5" cy="431" fill="#FFFFFF" rx="11" ry="11" style="stroke:#A9A9A9;stroke-width:1.0;"/><path d="M969.4688,436.6406 Q968.8906,436.9375 968.25,437.0781 Q967.6094,437.2344 966.9063,437.2344 Q964.4063,437.2344 963.0781,435.5938 Q961.7656,433.9375 961.7656,430.8125 Q961.7656,427.6875 963.0781,426.0313 Q964.4063,424.375 966.9063,424.375 Q967.6094,424.375 968.25,424.5313 Q968.9063,424.6875 969.4688,424.9844 L969.4688,427.7031 Q968.8438,427.125 968.25,426.8594 Q967.6563,426.5781 967.0313,426.5781 Q965.6875,426.5781 965,427.6563 Q964.3125,428.7188 964.3125,430.8125 Q964.3125,432.9063 965,433.9844 Q965.6875,435.0469 967.0313,435.0469 Q967.6563,435.0469 968.25,434.7813 Q968.8438,434.5 969.4688,433.9219 L969.4688,436.6406 Z " fill="#000000"/><text fill="#000000" font-family="sans-serif" font-size="12" lengthAdjust="spacing" textLength="99" x="980.5" y="435.1543">StatementBlock</text><!--MD5=[d03938f78b7f980b5cdf108b9da1baa7]
class BehaviouralEntity--><rect codeLine="43" fill="#FFFFFF" filter="url(#f1sd9211smo57u)" height="32" id="BehaviouralEntity" style="stroke:#A9A9A9;stroke-width:1.5;" width="140" x="897" y="323"/><ellipse cx="912" cy="339" fill="#FFFFFF" rx="11" ry="11" style="stroke:#A9A9A9;stroke-width:1.0;"/><path d="M914.9688,344.6406 Q914.3906,344.9375 913.75,345.0781 Q913.1094,345.2344 912.4063,345.2344 Q909.9063,345.2344 908.5781,343.5938 Q907.2656,341.9375 907.2656,338.8125 Q907.2656,335.6875 908.5781,334.0313 Q909.9063,332.375 912.4063,332.375 Q913.1094,332.375 913.75,332.5313 Q914.4063,332.6875 914.9688,332.9844 L914.9688,335.7031 Q914.3438,335.125 913.75,334.8594 Q913.1563,334.5781 912.5313,334.5781 Q911.1875,334.5781 910.5,335.6563 Q909.8125,336.7188 909.8125,338.8125 Q909.8125,340.9063 910.5,341.9844 Q911.1875,343.0469 912.5313,343.0469 Q913.1563,343.0469 913.75,342.7813 Q914.3438,342.5 914.9688,341.9219 L914.9688,344.6406 Z " fill="#000000"/><text fill="#000000" font-family="sans-serif" font-size="12" lengthAdjust="spacing" textLength="108" x="926" y="343.1543">BehaviouralEntity</text><!--MD5=[27bfdb9e128171e0e365013b6b91e809]
class Literal--><rect codeLine="45" fill="#FFFFFF" filter="url(#f1sd9211smo57u)" height="52.8047" id="Literal" style="stroke:#A9A9A9;stroke-width:1.5;" width="80" x="1336" y="605"/><ellipse cx="1355.5" cy="621" fill="#FFFFFF" rx="11" ry="11" style="stroke:#A9A9A9;stroke-width:1.0;"/><path d="M1358.4688,626.6406 Q1357.8906,626.9375 1357.25,627.0781 Q1356.6094,627.2344 1355.9063,627.2344 Q1353.4063,627.2344 1352.0781,625.5938 Q1350.7656,623.9375 1350.7656,620.8125 Q1350.7656,617.6875 1352.0781,616.0313 Q1353.4063,614.375 1355.9063,614.375 Q1356.6094,614.375 1357.25,614.5313 Q1357.9063,614.6875 1358.4688,614.9844 L1358.4688,617.7031 Q1357.8438,617.125 1357.25,616.8594 Q1356.6563,616.5781 1356.0313,616.5781 Q1354.6875,616.5781 1354,617.6563 Q1353.3125,618.7188 1353.3125,620.8125 Q1353.3125,622.9063 1354,623.9844 Q1354.6875,625.0469 1356.0313,625.0469 Q1356.6563,625.0469 1357.25,624.7813 Q1357.8438,624.5 1358.4688,623.9219 L1358.4688,626.6406 Z " fill="#000000"/><text fill="#000000" font-family="sans-serif" font-size="12" lengthAdjust="spacing" textLength="38" x="1370.5" y="625.1543">Literal</text><line style="stroke:#A9A9A9;stroke-width:1.5;" x1="1337" x2="1415" y1="637" y2="637"/><text fill="#000000" font-family="sans-serif" font-size="11" lengthAdjust="spacing" textLength="68" x="1342" y="651.2104">String value</text><!--MD5=[68732f7a25cd503a65c9255f5da80803]
class TEntity--><rect codeLine="48" fill="#FFFFFF" filter="url(#f1sd9211smo57u)" height="65.6094" id="TEntity" style="stroke:#A9A9A9;stroke-width:1.5;" width="109" x="1353.5" y="105"/><ellipse cx="1384.25" cy="121" fill="#D3D3D3" rx="11" ry="11" style="stroke:#A9A9A9;stroke-width:1.0;"/><path d="M1385.0938,127.75 L1382.6406,127.75 L1382.6406,117.5 L1379.5,117.5 L1379.5,115.3594 L1388.2344,115.3594 L1388.2344,117.5 L1385.0938,117.5 L1385.0938,127.75 Z " fill="#000000"/><text fill="#000000" font-family="sans-serif" font-size="12" lengthAdjust="spacing" textLength="42" x="1401.75" y="125.1543">TEntity</text><line style="stroke:#A9A9A9;stroke-width:1.5;" x1="1354.5" x2="1461.5" y1="137" y2="137"/><text fill="#000000" font-family="sans-serif" font-size="11" lengthAdjust="spacing" textLength="91" x="1359.5" y="151.2104">Number endPos</text><text fill="#000000" font-family="sans-serif" font-size="11" lengthAdjust="spacing" textLength="97" x="1359.5" y="164.0151">Number startPos</text><!--MD5=[52d60201ff07f09880e85c9b1e723bdb]
class VariableExpression--><rect codeLine="52" fill="#FFFFFF" filter="url(#f1sd9211smo57u)" height="32" id="VariableExpression" style="stroke:#A9A9A9;stroke-width:1.5;" width="151" x="489.5" y="615.5"/><ellipse cx="504.5" cy="631.5" fill="#FFFFFF" rx="11" ry="11" style="stroke:#A9A9A9;stroke-width:1.0;"/><path d="M507.4688,637.1406 Q506.8906,637.4375 506.25,637.5781 Q505.6094,637.7344 504.9063,637.7344 Q502.4063,637.7344 501.0781,636.0938 Q499.7656,634.4375 499.7656,631.3125 Q499.7656,628.1875 501.0781,626.5313 Q502.4063,624.875 504.9063,624.875 Q505.6094,624.875 506.25,625.0313 Q506.9063,625.1875 507.4688,625.4844 L507.4688,628.2031 Q506.8438,627.625 506.25,627.3594 Q505.6563,627.0781 505.0313,627.0781 Q503.6875,627.0781 503,628.1563 Q502.3125,629.2188 502.3125,631.3125 Q502.3125,633.4063 503,634.4844 Q503.6875,635.5469 505.0313,635.5469 Q505.6563,635.5469 506.25,635.2813 Q506.8438,635 507.4688,634.4219 L507.4688,637.1406 Z " fill="#000000"/><text fill="#000000" font-family="sans-serif" font-size="12" lengthAdjust="spacing" textLength="119" x="518.5" y="635.6543">VariableExpression</text><!--MD5=[4dd683cd8fb8dc056a44b999a3cf5480]
class FASTModel--><!--MD5=[e981667f5e808050f68287d0ddcdd288]
class TEntityMetaLevelDependency--><rect codeLine="102" fill="#FFFFE0" filter="url(#f1sd9211smo57u)" height="37.9375" id="TEntityMetaLevelDependency" style="stroke:#D3D3D3;stroke-width:1.5;" width="214" x="1047" y="7"/><ellipse cx="1062" cy="25.9688" fill="#FFFFE0" rx="11" ry="11" style="stroke:#D3D3D3;stroke-width:1.0;"/><path d="M1062.8438,32.7188 L1060.3906,32.7188 L1060.3906,22.4688 L1057.25,22.4688 L1057.25,20.3281 L1065.9844,20.3281 L1065.9844,22.4688 L1062.8438,22.4688 L1062.8438,32.7188 Z " fill="#000000"/><text fill="#000000" font-family="sans-serif" font-size="12" font-style="italic" lengthAdjust="spacing" textLength="65" x="1134.5" y="23.1387">«External»</text><text fill="#000000" font-family="sans-serif" font-size="12" lengthAdjust="spacing" textLength="182" x="1076" y="37.1074">TEntityMetaLevelDependency</text><!--MD5=[b62a3d14250b450b31337c5d96914ef3]
class TWithComments--><rect codeLine="97" fill="#FFFFE0" filter="url(#f1sd9211smo57u)" height="37.9375" id="TWithComments" style="stroke:#D3D3D3;stroke-width:1.5;" width="132" x="130" y="507"/><ellipse cx="145" cy="525.9688" fill="#FFFFE0" rx="11" ry="11" style="stroke:#D3D3D3;stroke-width:1.0;"/><path d="M145.8438,532.7188 L143.3906,532.7188 L143.3906,522.4688 L140.25,522.4688 L140.25,520.3281 L148.9844,520.3281 L148.9844,522.4688 L145.8438,522.4688 L145.8438,532.7188 Z " fill="#000000"/><text fill="#000000" font-family="sans-serif" font-size="12" font-style="italic" lengthAdjust="spacing" textLength="65" x="176.5" y="523.1387">«External»</text><text fill="#000000" font-family="sans-serif" font-size="12" lengthAdjust="spacing" textLength="100" x="159" y="537.1074">TWithComments</text><!--MD5=[5dfbfa02edd09e25b5878b34167ebe67]
class TNamedEntity--><rect codeLine="99" fill="#FFFFE0" filter="url(#f1sd9211smo57u)" height="37.9375" id="TNamedEntity" style="stroke:#D3D3D3;stroke-width:1.5;" width="118" x="297" y="507"/><ellipse cx="312" cy="525.9688" fill="#FFFFE0" rx="11" ry="11" style="stroke:#D3D3D3;stroke-width:1.0;"/><path d="M312.8438,532.7188 L310.3906,532.7188 L310.3906,522.4688 L307.25,522.4688 L307.25,520.3281 L315.9844,520.3281 L315.9844,522.4688 L312.8438,522.4688 L312.8438,532.7188 Z " fill="#000000"/><text fill="#000000" font-family="sans-serif" font-size="12" font-style="italic" lengthAdjust="spacing" textLength="65" x="336.5" y="523.1387">«External»</text><text fill="#000000" font-family="sans-serif" font-size="12" lengthAdjust="spacing" textLength="86" x="326" y="537.1074">TNamedEntity</text><!--MD5=[a955ed7e12368632d99bf05e627febcc]
class TSourceEntity--><rect codeLine="98" fill="#FFFFE0" filter="url(#f1sd9211smo57u)" height="37.9375" id="TSourceEntity" style="stroke:#D3D3D3;stroke-width:1.5;" width="118" x="450" y="507"/><ellipse cx="465" cy="525.9688" fill="#FFFFE0" rx="11" ry="11" style="stroke:#D3D3D3;stroke-width:1.0;"/><path d="M465.8438,532.7188 L463.3906,532.7188 L463.3906,522.4688 L460.25,522.4688 L460.25,520.3281 L468.9844,520.3281 L468.9844,522.4688 L465.8438,522.4688 L465.8438,532.7188 Z " fill="#000000"/><text fill="#000000" font-family="sans-serif" font-size="12" font-style="italic" lengthAdjust="spacing" textLength="65" x="489.5" y="523.1387">«External»</text><text fill="#000000" font-family="sans-serif" font-size="12" lengthAdjust="spacing" textLength="86" x="479" y="537.1074">TSourceEntity</text><!--MD5=[7e20e022571e30ec1001cf6eabd7f3e2]
class Model--><!--MD5=[2eea7b38a6746a43dd747f50ebba5361]
reverse link Entity to ScopableEntity--><path codeLine="57" d="M1231.69,174.1 C1219.47,193.34 1204.95,216.19 1195.61,230.88 " fill="none" id="Entity-backto-ScopableEntity" style="stroke:#000000;stroke-width:1.0;"/><polygon fill="none" points="1225.83,170.28,1242.46,157.15,1237.65,177.79,1225.83,170.28" style="stroke:#000000;stroke-width:1.0;"/><!--MD5=[7a19a98d4584ce7ab2bdee55ad77597f]
reverse link TEntity to ScopableEntity--><path codeLine="58" d="M1335.39,174 C1295.45,193.25 1247.94,216.14 1217.4,230.86 " fill="none" id="TEntity-backto-ScopableEntity" style="stroke:#000000;stroke-width:1.0;stroke-dasharray:7.0,7.0;"/><polygon fill="none" points="1332.35,167.69,1353.41,165.31,1338.43,180.3,1332.35,167.69" style="stroke:#000000;stroke-width:1.0;"/><!--MD5=[7c78d13e508857860332a0c6deb95714]
reverse link TEntityMetaLevelDependency to ScopableEntity--><path codeLine="59" d="M1159.57,65.14 C1166.74,114.17 1178.84,196.99 1183.79,230.87 " fill="none" id="TEntityMetaLevelDependency-backto-ScopableEntity" style="stroke:#000000;stroke-width:1.0;stroke-dasharray:7.0,7.0;"/><polygon fill="none" points="1152.64,66.1,1156.67,45.3,1166.49,64.07,1152.64,66.1" style="stroke:#000000;stroke-width:1.0;"/><!--MD5=[eb7e849ed50d643354699c00b7c94cc6]
reverse link Literal to NullPointerLiteral--><path codeLine="60" d="M1317.2,656.33 C1270.1,675.42 1205.45,701.62 1165.22,717.92 " fill="none" id="Literal-backto-NullPointerLiteral" style="stroke:#000000;stroke-width:1.0;"/><polygon fill="none" points="1314.71,649.78,1335.88,648.76,1319.97,662.76,1314.71,649.78" style="stroke:#000000;stroke-width:1.0;"/><!--MD5=[8daf9c49332ab5231d4a649f5feaba69]
reverse link Literal to CharacterLiteral--><path codeLine="61" d="M1343.68,674.15 C1331.69,689.59 1318.85,706.14 1309.84,717.75 " fill="none" id="Literal-backto-CharacterLiteral" style="stroke:#000000;stroke-width:1.0;"/><polygon fill="none" points="1338.32,669.63,1356.12,658.12,1349.38,678.21,1338.32,669.63" style="stroke:#000000;stroke-width:1.0;"/><!--MD5=[637843bd482861e7e78f29a556729817]
reverse link ScopableEntity to Statement--><path codeLine="62" d="M1186,283.61 C1186,297.31 1186,312.22 1186,322.96 " fill="none" id="ScopableEntity-backto-Statement" style="stroke:#000000;stroke-width:1.0;"/><polygon fill="none" points="1179,283.27,1186,263.27,1193,283.27,1179,283.27" style="stroke:#000000;stroke-width:1.0;"/><!--MD5=[2b5df68bc91adf7a22e654a78af59dd7]
reverse link BehaviouralEntity to NamedBehaviouralEntity--><path codeLine="63" d="M876.82,343.67 C677.26,353.89 208.29,390.09 112,507 C81.67,543.83 138.33,591.52 172.61,615.43 " fill="none" id="BehaviouralEntity-backto-NamedBehaviouralEntity" style="stroke:#000000;stroke-width:1.0;"/><polygon fill="none" points="876.65,336.67,896.97,342.68,877.34,350.66,876.65,336.67" style="stroke:#000000;stroke-width:1.0;"/><!--MD5=[bb948ba0d70104c7c7d50d212ffaa5bb]
reverse link TEntityMetaLevelDependency to NamedBehaviouralEntity--><path codeLine="64" d="M1026.41,38.07 C727.3,65.72 6,143.07 6,246 C6,246 6,246 6,432 C6,522.16 109.56,587.39 163.77,615.35 " fill="none" id="TEntityMetaLevelDependency-backto-NamedBehaviouralEntity" style="stroke:#000000;stroke-width:1.0;stroke-dasharray:7.0,7.0;"/><polygon fill="none" points="1026.22,31.05,1046.77,36.2,1027.49,45,1026.22,31.05" style="stroke:#000000;stroke-width:1.0;"/><!--MD5=[e4bc668e0ed12205c7f518a333d3855f]
reverse link TWithComments to NamedBehaviouralEntity--><path codeLine="65" d="M196,565.24 C196,582.64 196,602.23 196,615.37 " fill="none" id="TWithComments-backto-NamedBehaviouralEntity" style="stroke:#000000;stroke-width:1.0;stroke-dasharray:7.0,7.0;"/><polygon fill="none" points="189,565.03,196,545.03,203,565.03,189,565.03" style="stroke:#000000;stroke-width:1.0;"/><!--MD5=[509a3d79f043b987aabb4c27d838f494]
reverse link TNamedEntity to NamedBehaviouralEntity--><path codeLine="66" d="M311.25,555.95 C281.42,575.24 243.42,599.82 219.39,615.37 " fill="none" id="TNamedEntity-backto-NamedBehaviouralEntity" style="stroke:#000000;stroke-width:1.0;stroke-dasharray:7.0,7.0;"/><polygon fill="none" points="307.54,550.01,328.13,545.03,315.14,561.77,307.54,550.01" style="stroke:#000000;stroke-width:1.0;"/><!--MD5=[5e16999f40a0d7f038906dea8be8b07e]
reverse link TSourceEntity to NamedBehaviouralEntity--><path codeLine="67" d="M435.49,551.31 C375.5,571.14 292.63,598.55 241.76,615.37 " fill="none" id="TSourceEntity-backto-NamedBehaviouralEntity" style="stroke:#000000;stroke-width:1.0;stroke-dasharray:7.0,7.0;"/><polygon fill="none" points="433.29,544.66,454.48,545.03,437.69,557.95,433.29,544.66" style="stroke:#000000;stroke-width:1.0;"/><!--MD5=[aacfff4ed32c286466fddb9b020fa6b0]
reverse link Literal to StringLiteral--><path codeLine="68" d="M1407.91,674.15 C1419.74,689.59 1432.42,706.14 1441.31,717.75 " fill="none" id="Literal-backto-StringLiteral" style="stroke:#000000;stroke-width:1.0;"/><polygon fill="none" points="1402.24,678.25,1395.63,658.12,1413.35,669.74,1402.24,678.25" style="stroke:#000000;stroke-width:1.0;"/><!--MD5=[0bb58e2e663bd8f52cbb3a64f7f519e2]
reverse link Literal to BooleanLiteral--><path codeLine="69" d="M1434.57,658.55 C1477,677.41 1532.88,702.26 1568.13,717.94 " fill="none" id="Literal-backto-BooleanLiteral" style="stroke:#000000;stroke-width:1.0;"/><polygon fill="none" points="1431.57,664.87,1416.14,650.35,1437.26,652.08,1431.57,664.87" style="stroke:#000000;stroke-width:1.0;"/><!--MD5=[618bfcff518362e637c0d4a59c61f9f1]
reverse link Statement to ReturnStatement--><path codeLine="70" d="M1186.79,375.61 C1187.1,389.31 1187.43,404.22 1187.67,414.96 " fill="none" id="Statement-backto-ReturnStatement" style="stroke:#000000;stroke-width:1.0;"/><polygon fill="none" points="1179.79,375.42,1186.34,355.27,1193.78,375.11,1179.79,375.42" style="stroke:#000000;stroke-width:1.0;"/><!--MD5=[4b374345ea4e71c0eeb059ce073bc6fc]
reverse link Statement to ExpressionStatement--><path codeLine="71" d="M1236.1,363.73 C1270.31,379.94 1314.6,400.92 1344.09,414.89 " fill="none" id="Statement-backto-ExpressionStatement" style="stroke:#000000;stroke-width:1.0;"/><polygon fill="none" points="1232.88,369.95,1217.8,355.06,1238.87,357.3,1232.88,369.95" style="stroke:#000000;stroke-width:1.0;"/><!--MD5=[35575750c80c8907855725a064603ab0]
reverse link Entity to Entity--><path codeLine="72" d="M1312.58,118.24 C1325.82,120.02 1335.5,126.6 1335.5,138 C1335.5,154.77 1314.54,161.12 1292.15,157.06 " fill="none" id="Entity-backto-Entity" style="stroke:#000000;stroke-width:1.0;"/><polygon fill="none" points="1312.38,125.25,1292.15,118.94,1311.9,111.26,1312.38,125.25" style="stroke:#000000;stroke-width:1.0;"/><!--MD5=[5abd3c627c6d4e2a6542a76f8c0d54be]
reverse link Entity to Expression--><path codeLine="73" d="M1291.8,170.32 C1344.93,217.08 1439.32,310.89 1476,415 C1480.73,428.41 1482.24,434.22 1476,447 C1461.99,475.69 1431.77,496.9 1408.2,509.9 " fill="none" id="Entity-backto-Expression" style="stroke:#000000;stroke-width:1.0;"/><polygon fill="none" points="1287.02,175.44,1276.43,157.09,1296.16,164.83,1287.02,175.44" style="stroke:#000000;stroke-width:1.0;"/><!--MD5=[edcb1fd042458fe4c11935d7d28a4f07]
reverse link TEntity to Expression--><path codeLine="74" d="M1480.1,172.67 C1502.86,187.18 1525.34,206.54 1538,231 C1582.11,316.26 1589.08,365.72 1538,447 C1513.67,485.72 1464.13,505.67 1426.21,515.65 " fill="none" id="TEntity-backto-Expression" style="stroke:#000000;stroke-width:1.0;stroke-dasharray:7.0,7.0;"/><polygon fill="none" points="1476.5,178.67,1462.81,162.5,1483.6,166.6,1476.5,178.67" style="stroke:#000000;stroke-width:1.0;"/><!--MD5=[55598a39074d8be529ef98438d512d01]
reverse link TEntityMetaLevelDependency to Expression--><path codeLine="75" d="M1281.63,29.72 C1429.77,40.45 1654,83.53 1654,246 C1654,246 1654,246 1654,340 C1654,448.27 1506.06,497.02 1426.02,515.48 " fill="none" id="TEntityMetaLevelDependency-backto-Expression" style="stroke:#000000;stroke-width:1.0;stroke-dasharray:7.0,7.0;"/><polygon fill="none" points="1280.77,36.68,1261.26,28.41,1281.67,22.71,1280.77,36.68" style="stroke:#000000;stroke-width:1.0;"/><!--MD5=[fba8b9523cba9e3bdc1c313f8eb17729]
reverse link TArgument to Expression--><path codeLine="76" d="M935.75,447.19 C1089.24,477.39 1247.08,503.93 1325.82,516.86 " fill="none" id="TArgument-backto-Expression" style="stroke:#000000;stroke-width:1.0;stroke-dasharray:7.0,7.0;"/><polygon fill="none" points="934.34,454.05,916.08,443.3,937.06,440.32,934.34,454.05" style="stroke:#000000;stroke-width:1.0;"/><!--MD5=[c1b130a44cb2896fccd675b935fd9657]
reverse link Statement to StatementBlock--><path codeLine="77" d="M1129.59,363.96 C1097.02,380.13 1058.4,400.98 1035.56,414.89 " fill="none" id="Statement-backto-StatementBlock" style="stroke:#000000;stroke-width:1.0;"/><polygon fill="none" points="1126.86,357.5,1147.91,355.06,1132.97,370.1,1126.86,357.5" style="stroke:#000000;stroke-width:1.0;"/><!--MD5=[d48cd686c6f78e0f1b641c76cca0eddb]
link Statement to StatementBlock--><path codeLine="91" d="M1168.1,355.06 C1144.01,369.86 1101.79,392.56 1067.86,409.1 " fill="none" id="Statement-to-StatementBlock" style="stroke:#000000;stroke-width:1.0;"/><polygon fill="#FFFFFF" points="1055.77,414.89,1062.9095,415.904,1066.5914,409.7037,1059.4519,408.6897,1055.77,414.89" style="stroke:#000000;stroke-width:1.0;"/><text fill="#000000" font-family="sans-serif" font-size="13" lengthAdjust="spacing" textLength="81" x="1067.0925" y="374.9531">*statements</text><text fill="#000000" font-family="sans-serif" font-size="13" lengthAdjust="spacing" textLength="129" x="917.9253" y="403.8638">statementContainer</text><!--MD5=[8c63cad399efb7b90c466e041f74dd65]
reverse link ScopableEntity to BehaviouralEntity--><path codeLine="78" d="M1130.71,270.72 C1090.97,287.05 1038.48,308.63 1003.78,322.89 " fill="none" id="ScopableEntity-backto-BehaviouralEntity" style="stroke:#000000;stroke-width:1.0;"/><polygon fill="none" points="1128.18,264.19,1149.34,263.06,1133.51,277.14,1128.18,264.19" style="stroke:#000000;stroke-width:1.0;"/><!--MD5=[6cf32f0474f3ee3a544d8cefdd32e636]
reverse link TWithParameters to BehaviouralEntity--><path codeLine="79" d="M898.07,276.58 C915.35,291.97 935.96,310.34 950.12,322.96 " fill="none" id="TWithParameters-backto-BehaviouralEntity" style="stroke:#000000;stroke-width:1.0;stroke-dasharray:7.0,7.0;"/><polygon fill="none" points="893.41,281.8,883.13,263.27,902.72,271.35,893.41,281.8" style="stroke:#000000;stroke-width:1.0;"/><!--MD5=[962b9c712b538c28d4d6aa1fb77e906f]
reverse link Expression to Literal--><path codeLine="80" d="M1376,562.31 C1376,576.22 1376,591.91 1376,604.72 " fill="none" id="Expression-backto-Literal" style="stroke:#000000;stroke-width:1.0;"/><polygon fill="none" points="1369,562.27,1376,542.27,1383,562.27,1369,562.27" style="stroke:#000000;stroke-width:1.0;"/><!--MD5=[7133d00abd3a2d98479803ef02c46f80]
reverse link TEntityMetaLevelDependency to TEntity--><path codeLine="81" d="M1215.25,53.01 C1250.59,68.08 1295.86,87.48 1336,105 C1341.64,107.46 1347.52,110.05 1353.39,112.64 " fill="none" id="TEntityMetaLevelDependency-backto-TEntity" style="stroke:#000000;stroke-width:1.0;stroke-dasharray:7.0,7.0;"/><polygon fill="none" points="1212.38,59.4,1196.73,45.12,1217.87,46.52,1212.38,59.4" style="stroke:#000000;stroke-width:1.0;"/><!--MD5=[d0bf6018c8c71bb6f8e7f8bfa9cd0ce8]
reverse link Expression to VariableExpression--><path codeLine="82" d="M1305.9,535.95 C1154.3,555.29 797.06,600.88 640.62,620.85 " fill="none" id="Expression-backto-VariableExpression" style="stroke:#000000;stroke-width:1.0;"/><polygon fill="none" points="1305.16,528.98,1325.88,533.4,1306.93,542.87,1305.16,528.98" style="stroke:#000000;stroke-width:1.0;"/><!--MD5=[07dd6ad0b101a0678c45e791d084203c]
reverse link TEntityMetaLevelDependency to VariableExpression--><path codeLine="83" d="M1026.68,39.93 C919.53,52.67 776.14,74.64 727,105 C660.3,146.21 621,167.6 621,246 C621,246 621,246 621,432 C621,502.9 587.5,582.87 572.32,615.47 " fill="none" id="TEntityMetaLevelDependency-backto-VariableExpression" style="stroke:#000000;stroke-width:1.0;stroke-dasharray:7.0,7.0;"/><polygon fill="none" points="1025.9,32.98,1046.57,37.62,1027.51,46.88,1025.9,32.98" style="stroke:#000000;stroke-width:1.0;"/><!--MD5=[dc193692d47a6132a3dc8a899a873455]
reverse link TNamedEntity to VariableExpression--><path codeLine="84" d="M410.38,553.93 C449.9,573.5 501.95,599.28 534.44,615.37 " fill="none" id="TNamedEntity-backto-VariableExpression" style="stroke:#000000;stroke-width:1.0;stroke-dasharray:7.0,7.0;"/><polygon fill="none" points="407.22,560.18,392.41,545.03,413.43,547.63,407.22,560.18" style="stroke:#000000;stroke-width:1.0;"/><!--MD5=[6fac83369a990ef6257ffbc87cf5a0dc]
reverse link TParameter to VariableExpression--><path codeLine="85" d="M768.97,169.32 C737.87,206.25 692,271.9 692,338 C692,338 692,338 692,432 C692,511.57 618.69,584.82 583.47,615.41 " fill="none" id="TParameter-backto-VariableExpression" style="stroke:#000000;stroke-width:1.0;stroke-dasharray:7.0,7.0;"/><polygon fill="none" points="763.94,164.45,782.4,154.05,774.45,173.69,763.94,164.45" style="stroke:#000000;stroke-width:1.0;"/><!--MD5=[f2ab68a57211227b15cf42fa9a3db14d]
reverse link TWithComments to VariableExpression--><path codeLine="86" d="M279.95,550.55 C350.98,570.47 450.63,598.42 511.34,615.45 " fill="none" id="TWithComments-backto-VariableExpression" style="stroke:#000000;stroke-width:1.0;stroke-dasharray:7.0,7.0;"/><polygon fill="none" points="277.64,557.17,260.27,545.03,281.42,543.69,277.64,557.17" style="stroke:#000000;stroke-width:1.0;"/><!--MD5=[123afe18b3981ec504c9c8422c6a611c]
reverse link TSourceEntity to VariableExpression--><path codeLine="87" d="M528.29,562.65 C538.04,580.67 549.35,601.58 556.81,615.37 " fill="none" id="TSourceEntity-backto-VariableExpression" style="stroke:#000000;stroke-width:1.0;stroke-dasharray:7.0,7.0;"/><polygon fill="none" points="522.12,565.95,518.75,545.03,534.43,559.29,522.12,565.95" style="stroke:#000000;stroke-width:1.0;"/><!--MD5=[d2faeef4f309a641166661f99aae66a4]
reverse link Model to FASTModel--><!--MD5=[06d1e7a4b8289d6e794f271b8bf15ac9]
link TArgument to TWithArguments--><path codeLine="90" d="M866,447.36 C866,460.76 866,480.56 866,496.81 " fill="none" id="TArgument-to-TWithArguments" style="stroke:#000000;stroke-width:1.0;"/><polygon fill="#FFFFFF" points="866,509.93,870,503.93,866,497.93,862,503.93,866,509.93" style="stroke:#000000;stroke-width:1.0;"/><text fill="#000000" font-family="sans-serif" font-size="13" lengthAdjust="spacing" textLength="77" x="776.0906" y="467.0534">*arguments</text><text fill="#000000" font-family="sans-serif" font-size="13" lengthAdjust="spacing" textLength="103" x="745.2969" y="498.9175">argumentOwner</text><!--MD5=[aac366a2462370f7c495fef5b4650854]
reverse link ReturnStatement to Expression--><path codeLine="92" d="M1230.36,452.96 C1265.33,470.25 1314.12,494.39 1345.39,509.86 " fill="none" id="ReturnStatement-backto-Expression" style="stroke:#000000;stroke-width:1.0;"/><polygon fill="#FFFFFF" points="1218.62,447.15,1222.2284,453.3933,1229.3794,452.4638,1225.7709,446.2204,1218.62,447.15" style="stroke:#000000;stroke-width:1.0;"/><text fill="#000000" font-family="sans-serif" font-size="13" lengthAdjust="spacing" textLength="79" x="1136.6785" y="467.073">returnOwner</text><text fill="#000000" font-family="sans-serif" font-size="13" lengthAdjust="spacing" textLength="69" x="1254.0084" y="498.8235">expression</text><!--MD5=[cb8df788b7b34131c85f7f9187538208]
reverse link ExpressionStatement to Expression--><path codeLine="93" d="M1376,460.53 C1376,476.83 1376,496.61 1376,509.93 " fill="none" id="ExpressionStatement-backto-Expression" style="stroke:#000000;stroke-width:1.0;"/><polygon fill="#FFFFFF" points="1376,447.36,1372,453.36,1376,459.36,1380,453.36,1376,447.36" style="stroke:#000000;stroke-width:1.0;"/><text fill="#000000" font-family="sans-serif" font-size="13" lengthAdjust="spacing" textLength="178" x="1404.3688" y="467.0534">expressionStatementOwner</text><text fill="#000000" font-family="sans-serif" font-size="13" lengthAdjust="spacing" textLength="69" x="1387.8594" y="498.9175">expression</text><!--MD5=[d1881b62c24eb21ca81021830d1d9318]
link TParameter to TWithParameters--><path codeLine="94" d="M806.89,154.33 C817.85,171.33 835.74,199.07 848.97,219.59 " fill="none" id="TParameter-to-TWithParameters" style="stroke:#000000;stroke-width:1.0;"/><polygon fill="#FFFFFF" points="856.13,230.7,856.2421,223.4898,849.6296,220.6131,849.5175,227.8234,856.13,230.7" style="stroke:#000000;stroke-width:1.0;"/><text fill="#000000" font-family="sans-serif" font-size="13" lengthAdjust="spacing" textLength="82" x="714.3362" y="174.0139">*parameters</text><text fill="#000000" font-family="sans-serif" font-size="13" lengthAdjust="spacing" textLength="108" x="726.9731" y="219.9051">parameterOwner</text><!--MD5=[817e2a4e6d586f18814f93d19cf2c518]
reverse link BehaviouralEntity to StatementBlock--><path codeLine="95" d="M981.96,366.93 C990.69,382.65 1001.38,401.89 1008.64,414.96 " fill="none" id="BehaviouralEntity-backto-StatementBlock" style="stroke:#000000;stroke-width:1.0;"/><polygon fill="#FFFFFF" points="975.48,355.27,974.8995,362.4577,981.3111,365.758,981.8915,358.5703,975.48,355.27" style="stroke:#000000;stroke-width:1.0;"/><text fill="#000000" font-family="sans-serif" font-size="13" lengthAdjust="spacing" textLength="141" x="814.7111" y="374.9347">fastBehaviouralParent</text><text fill="#000000" font-family="sans-serif" font-size="13" lengthAdjust="spacing" textLength="101" x="1023.1256" y="403.9578">statementBlock</text><!--MD5=[ec402410b5d08c511e9f22fdaab124db]
@startuml
hide empty members

skinparam class {
  BackgroundColor white
  ArrowColor black
  BorderColor darkGray
  BackgroundColor<<External>> LightYellow
  BorderColor<<External>> LightGray
}

class ScopableEntity << (C,white) >> {
}
class TArgument << (T,lightGrey) >> {
}
class NullPointerLiteral << (C,white) >> {
}
class CharacterLiteral << (C,white) >> {
}
class Statement << (C,white) >> {
}
class NamedBehaviouralEntity << (C,white) >> {
}
class StringLiteral << (C,white) >> {
}
class BooleanLiteral << (C,white) >> {
}
class ReturnStatement << (C,white) >> {
}
class ExpressionStatement << (C,white) >> {
}
class Entity << (C,white) >> {
}
class TParameter << (T,lightGrey) >> {
}
class TWithArguments << (T,lightGrey) >> {
}
class Expression << (C,white) >> {
}
class TWithParameters << (T,lightGrey) >> {
}
class StatementBlock << (C,white) >> {
}
class BehaviouralEntity << (C,white) >> {
}
class Literal << (C,white) >> {
  String value
}
class TEntity << (T,lightGrey) >> {
  Number endPos
  Number startPos
}
class VariableExpression << (C,white) >> {
}
class FASTModel << (C,white) >> {
}

Entity <|- - ScopableEntity
TEntity <|.. ScopableEntity
TEntityMetaLevelDependency <|.. ScopableEntity
Literal <|- - NullPointerLiteral
Literal <|- - CharacterLiteral
ScopableEntity <|- - Statement
BehaviouralEntity <|- - NamedBehaviouralEntity
TEntityMetaLevelDependency <|.. NamedBehaviouralEntity
TWithComments <|.. NamedBehaviouralEntity
TNamedEntity <|.. NamedBehaviouralEntity
TSourceEntity <|.. NamedBehaviouralEntity
Literal <|- - StringLiteral
Literal <|- - BooleanLiteral
Statement <|- - ReturnStatement
Statement <|- - ExpressionStatement
Entity <|- - Entity
Entity <|- - Expression
TEntity <|.. Expression
TEntityMetaLevelDependency <|.. Expression
TArgument <|.. Expression
Statement <|- - StatementBlock
ScopableEntity <|- - BehaviouralEntity
TWithParameters <|.. BehaviouralEntity
Expression <|- - Literal
TEntityMetaLevelDependency <|.. TEntity
Expression <|- - VariableExpression
TEntityMetaLevelDependency <|.. VariableExpression
TNamedEntity <|.. VariableExpression
TParameter <|.. VariableExpression
TWithComments <|.. VariableExpression
TSourceEntity <|.. VariableExpression
Model <|- - FASTModel

TArgument " *arguments" - -o "argumentOwner" TWithArguments
Statement " *statements" - -o "statementContainer" StatementBlock
ReturnStatement "returnOwner" o- - "expression" Expression
ExpressionStatement "expressionStatementOwner" o- - "expression" Expression
TParameter " *parameters" - -o "parameterOwner" TWithParameters
BehaviouralEntity "fastBehaviouralParent" o- - "statementBlock" StatementBlock

class TWithComments <<(T,LightYellow)External>>
class TSourceEntity <<(T,LightYellow)External>>
class TNamedEntity <<(T,LightYellow)External>>
class Model <<(C,LightYellow)External>>
class Entity <<(C,LightYellow)External>>
class TEntityMetaLevelDependency <<(T,LightYellow)External>>

hide Model
hide FASTModel
@enduml

PlantUML version 1.2021.5(Sun Apr 25 13:20:28 CEST 2021)
(GPL source distribution)
Java Runtime: OpenJDK Runtime Environment
JVM: OpenJDK 64-Bit Server VM
Default Encoding: UTF-8
Language: fr
Country: FR
--></g></svg>